<?xml version="1.0" encoding="UTF-8" standalone="no"?>
<!-- Created with Inkscape (http://www.inkscape.org/) -->

<svg
   width="210mm"
   height="297mm"
   viewBox="0 0 210 297"
   version="1.1"
   id="svg1"
   xmlns="http://www.w3.org/2000/svg"
   xmlns:svg="http://www.w3.org/2000/svg">
  <defs
     id="defs1" />
  <g
     id="layer1">
    <path
       style="fill:#1a1a1a;stroke:#ffffff;stroke-width:0.665001"
       d="m 100.86582,121.64776 c -2.583572,1.4648 -7.309665,4.16426 -9.259049,5.1024 -3.127729,1.50521 -6.028542,1.75586 -9.500494,2.3709 -8.864378,1.57029 -17.508294,2.67905 -26.183931,-0.71336 -1.534843,-0.60016 -7.901744,-4.3143 -8.08454,-7.05259 -0.517443,-7.7513 3.820896,-14.341 9.087422,-19.28944 1.786379,-1.67849 4.301688,-4.042338 6.800297,-4.852127 4.185054,-1.356357 10.303015,-0.764847 14.317016,0.647539 9.591789,3.375008 19.384341,11.536488 26.612219,17.063778 9.30449,7.1153 12.40626,13.89722 17.59087,23.92038 1.50989,2.91899 7.3775,10.42588 7.3775,13.00709"
       id="path1" />
    <path
       style="fill:#1a1a1a;stroke:#ffffff;stroke-width:0.665001"
       d="m 67.709959,155.59766 c 13.250894,17.25415 7.045246,10.03768 46.221361,33.87082 1.78623,1.08667 9.90365,1.38084 12.82301,2.04742 0.13871,0.0317 -0.0383,0.2898 0,0.42683 0.0921,0.32963 0.33013,0.614 0.38504,0.95182 0.0758,0.46629 0,0.94482 0,1.41723 0.1445,1.2397 0.21946,2.4895 0.4335,3.7191 0.184,1.05707 0.44486,1.56012 0.44486,2.60863 0,0.10785 -0.0173,-0.21712 0,-0.32357 0.12554,-0.77081 0.14886,-1.57407 0.42787,-2.3035 0.71894,-1.87961 1.69793,-3.64914 2.54691,-5.4737 0.90086,-2.79395 1.67329,-5.63262 2.70259,-8.38184 1.11163,-2.96915 2.84693,-5.70665 3.71381,-8.75626 0.67326,-2.3685 3.07885,-20.70347 3.20434,-22.07291 0.44166,-4.81948 0.72269,-9.65652 0.83803,-14.49482 0.0181,-0.76006 -0.11366,-1.55107 -0.43913,-2.23817 -0.31963,-0.67479 -1.01757,-1.10082 -1.43554,-1.71953 -2.45947,-3.64066 -3.29056,-5.19061 -7.34144,-7.78262 -0.96318,-0.61629 -2.1618,-0.78708 -3.14349,-1.37342 -3.89206,-2.32464 -7.6262,-4.90403 -11.44832,-7.34194 -2.76566,-1.76405 -5.68134,-3.30814 -8.31494,-5.26387 -2.95254,-2.19257 -5.64988,-4.71113 -8.40216,-7.15035 -2.548288,-2.25843 -4.875182,-4.7658 -7.496087,-6.939545 C 90.044189,96.215172 86.208377,93.963084 82.926276,91.034054 78.545877,87.124872 74.54892,82.803261 70.4955,78.555979 c -9.910534,-11.773802 1.53528,1.280273 -7.524429,-7.668623 -1.202349,-1.187643 -2.225532,-2.544024 -3.323765,-3.828555 -0.237003,-0.277207 -0.768067,-0.879385 -0.940985,-0.558273 -3.054374,5.672068 -4.274979,13.035645 -5.471459,18.926375 -3.432982,16.901907 -5.64601,32.175547 -7.243278,49.505257 -1.119725,12.14854 2.30474,24.70895 -3.039494,36.25459 -0.07771,0.16789 -0.378984,-0.057 -0.555001,0 -0.381772,0.12351 -0.785291,0.25825 -1.081143,0.52932 -2.137275,1.95823 1.005626,0.1872 -1.406681,1.39482"
       id="path2" />
  </g>
</svg>
