<?xml version="1.0" encoding="UTF-8" standalone="no"?>
<!-- Created with Inkscape (http://www.inkscape.org/) -->

<svg
   width="160mm"
   height="80mm"
   viewBox="0 0 160 80"
   version="1.1"
   id="svg5"
   inkscape:version="1.3.2 (091e20ef0f, 2023-11-25, custom)"
   sodipodi:docname="allah.svg"
   xmlns:inkscape="http://www.inkscape.org/namespaces/inkscape"
   xmlns:sodipodi="http://sodipodi.sourceforge.net/DTD/sodipodi-0.dtd"
   xmlns="http://www.w3.org/2000/svg"
   xmlns:svg="http://www.w3.org/2000/svg">
  <sodipodi:namedview
     id="namedview7"
     pagecolor="#ffffff"
     bordercolor="#000000"
     borderopacity="0.25"
     inkscape:showpageshadow="2"
     inkscape:pageopacity="0.0"
     inkscape:pagecheckerboard="0"
     inkscape:deskcolor="#d1d1d1"
     inkscape:document-units="mm"
     showgrid="false"
     inkscape:zoom="1.4984147"
     inkscape:cx="276.95938"
     inkscape:cy="189.53365"
     inkscape:window-width="1052"
     inkscape:window-height="1062"
     inkscape:window-x="1920"
     inkscape:window-y="14"
     inkscape:window-maximized="0"
     inkscape:current-layer="layer1" />
  <defs
     id="defs2" />
  <g
     inkscape:label="Layer 1"
     inkscape:groupmode="layer"
     id="layer1">
    <path
       style="fill:#1a1a1a;stroke:#ffffff;stroke-width:0.665001"
       id="path1"
       d="m 37.769508,47.533364 c 0.960967,-1.684809 2.084541,-3.272237 2.967932,-5.002655 0.458007,-0.897162 0.886513,-1.810152 1.28052,-2.737207 0.473774,-1.114734 0.880957,-2.256607 1.321435,-3.384912 1.319144,-3.557791 2.79327,-7.056168 4.452392,-10.468892 0.402032,-0.826955 1.668264,-3.401625 2.348093,-4.302744 0.232717,-0.308469 0.573146,-0.518405 0.859721,-0.777608 1.668002,1.31765 -1.094322,-0.959773 -2.224458,-0.488956 -0.582001,0.242463 0.34363,1.214062 0.478036,1.830057 0.634069,2.905998 0.988655,5.875136 1.397397,8.817977 0.270698,1.848104 0.482767,3.704108 0.739696,5.554049 0.09395,0.676457 0.163033,1.357706 0.300217,2.02674 0.09614,0.468839 0.02839,1.075674 0.398216,1.379455 3.492172,2.868525 2.886806,2.749151 5.129157,1.417857 0.419992,-0.504306 0.88764,-0.97247 1.259978,-1.512916 1.064789,-1.545543 2.033788,-3.644657 2.848631,-5.280795 1.406244,-2.823631 2.806766,-5.645169 4.273886,-8.437737 -3.248345,-1.699468 2.757874,-1.39972 1.960557,-1.372678 -0.756475,0.02566 -1.984803,-0.687534 -2.270688,0.01331 -0.423866,1.039096 0.670231,2.143156 0.947449,3.230596 0.576246,2.260444 1.357587,6.232779 1.817523,8.484955 0.298903,1.397997 1.220703,5.90337 1.695053,7.433905 0.436878,1.409623 1.119944,3.10411 2.139842,4.24706 1.028813,1.152938 5.00081,2.794328 5.331102,2.957743 0.360392,0.0093 0.721284,0.04902 1.081173,0.02786 0.63577,-0.03738 1.696148,-0.28937 2.156563,-0.800833 0.07634,-0.0848 0.121502,-0.193159 0.182253,-0.28974 0.03258,-0.122274 0.07657,-0.242067 0.09774,-0.366823 0.02212,-0.130353 0.08462,-0.9891 0.09292,-1.067237 0.08186,-0.769826 0.226139,-1.530107 0.365607,-2.290913 0.06059,-0.245346 0.10927,-0.493943 0.181787,-0.736031 0.05793,-0.193387 0.255892,-0.7565 0.414636,-0.951881 0.04089,-0.05033 0.231042,-0.05619 0.173998,-0.08705 -3.62064,-1.958022 -3.837593,-2.66719 -3.047031,-1.076454 0.523888,2.010738 0.995711,4.032723 1.599208,6.022263 0.145526,0.47975 0.280879,0.963446 0.455715,1.433309 0.144418,0.388117 0.333796,0.757989 0.500695,1.136983 1.445279,1.571694 1.469141,1.784972 4.750361,2.627421 0.433303,0.111252 0.855064,-0.291184 1.232223,-0.531765 1.088464,-0.694301 2.015445,-1.757288 2.746973,-2.795161 0.482787,-0.684969 0.874167,-1.429999 1.311253,-2.144999 0.401569,-0.813289 0.830377,-1.613688 1.204707,-2.439868 0.830019,-1.831938 1.448548,-3.583625 2.163085,-5.464712 0.91314,-2.403927 1.849093,-4.797716 2.80145,-7.186305 0.140454,-0.336857 0.808686,-2.067526 1.158584,-2.53613 0.07002,-0.09377 0.435184,-0.1174 0.320874,-0.142462 -1.032042,-0.226274 -2.297997,-1.120404 -3.133979,-0.474308 -0.706324,0.545886 0.225128,1.771518 0.30513,2.660608 0.101442,1.127337 0.15938,2.258168 0.23907,3.387251 0.197006,3.167893 0.427561,6.333887 0.681739,9.497708 0.04614,0.57431 0.198331,2.915703 0.422074,3.653883 0.09672,0.319114 0.323297,0.583298 0.484944,0.874948 1.35232,0.619813 2.599793,1.560129 4.056953,1.859439 0.46809,0.09615 0.8341,-0.475785 1.20351,-0.778913 1.75946,-1.443786 3.00153,-3.533044 4.1873,-5.441426 0.12599,-0.210187 0.82759,-1.432732 1.09723,-1.727443 0.0722,-0.07894 0.37745,-0.0945 0.2848,-0.148026 -1.07162,-0.619091 -2.15913,-1.253046 -3.34171,-1.617986 -0.20229,-0.06243 0.10156,0.412803 0.11985,0.623724 0.0251,0.289869 0.007,0.581874 0.01,0.87281 -0.0792,1.274929 0.021,2.587844 -0.25686,3.843004 -0.0503,0.0869 -0.0845,0.185528 -0.15105,0.260712 -0.30583,0.345255 -1.21528,0.748049 -1.57944,0.930905 -1.35009,0.677918 -1.76351,0.857536 -3.27878,1.569842 -10.264674,4.657711 -21.077583,7.946416 -32.258092,9.50368 -2.596337,0.361629 -5.21908,0.49816 -7.828621,0.747238 -5.110974,0.06732 -6.98246,0.304964 -11.803721,-0.338841 -1.162992,-0.1553 -2.318417,-0.393869 -3.445589,-0.719677 -0.601268,-0.173794 -2.217912,-1.139598 -1.711997,-0.771115 2.175613,1.584608 2.388618,1.570209 4.208401,2.154581 3.499721,0.936279 6.828698,2.397199 10.349754,3.265766 2.97548,0.733986 4.567854,0.911944 7.634586,1.392417 5.973453,0.806191 11.983339,1.386703 18.010738,1.543188 0.642305,-0.01003 1.404665,0.006 2.055305,-0.09142 0.203374,-0.03044 0.399833,-0.09636 0.599749,-0.144536 0,0 -3.103123,-2.129465 -3.103123,-2.129465 v 0 c -0.736042,0.233894 -1.485024,0.36295 -2.259793,0.403429 -5.724139,0.326951 -11.460342,-0.145563 -17.128522,-0.954008 -3.467608,-0.606274 -4.531688,-0.706488 -7.878614,-1.617583 -3.73711,-1.017313 -7.302137,-2.565141 -10.992413,-3.727561 -0.571543,-0.08512 -2.004939,-0.755002 -1.714627,-0.255376 1.450842,2.496925 4.507621,2.709304 6.957216,2.811407 4.491381,0.187208 6.066324,-0.06481 10.848525,-0.376846 2.520362,-0.313667 5.051734,-0.548887 7.56109,-0.941002 6.449896,-1.007869 10.543008,-2.01998 16.917593,-3.504001 2.679756,-0.623853 5.363488,-1.232289 8.031652,-1.903992 3.28843,-0.827849 6.253626,-1.715908 9.474043,-2.654308 1.20416,-0.398259 2.54646,-0.827643 3.75528,-1.270317 0.58007,-0.212424 1.49597,-0.487429 1.91633,-1.003493 0.0885,-0.108628 0.13259,-0.246854 0.19888,-0.37028 0.10202,-0.565509 0.0762,-0.925197 0.0686,-1.501118 -0.0109,-0.82881 -0.007,-1.658261 0.0406,-2.486052 0.0255,-0.282927 0.0427,-0.566732 0.0765,-0.84878 0.0273,-0.227185 0.28601,-0.535901 0.10674,-0.678098 -1.05816,-0.839338 -2.28461,-1.45677 -3.51114,-2.022285 -0.11091,-0.05113 -0.1083,0.219041 -0.15677,0.331131 -0.75399,1.74375 0.22367,-0.396451 -0.83176,1.869086 -0.80312,1.483545 -1.62589,2.965593 -2.83529,4.170489 -0.4004,0.39891 -0.83181,0.775174 -1.30985,1.076714 -0.37416,0.236019 -1.383363,0.108244 -1.221113,0.519798 0.3288,0.834017 1.394833,1.126596 2.092253,1.689894 -0.24914,-0.281856 -0.57867,-0.509355 -0.74742,-0.845564 -0.41965,-0.836104 -0.761186,-3.077863 -0.880921,-3.837379 -0.499628,-3.169293 -0.845132,-6.36756 -0.891233,-9.578313 0.01572,-1.080635 0.0066,-2.161918 0.04718,-3.241908 0.0305,-0.8119 0.565758,-1.724461 0.165959,-2.431761 -3.201487,-5.66388 -3.07504,-3.67278 -3.648993,-1.567334 -0.152841,0.560668 -0.319844,1.11738 -0.479763,1.676072 -1.070325,3.43031 -2.239055,6.81722 -3.634703,10.130745 -0.36525,0.867166 -0.721447,1.73923 -1.131081,2.586334 -0.389837,0.806172 -0.843663,1.579803 -1.265494,2.369706 -1.024318,1.468967 -1.523748,2.413476 -2.887842,3.554883 -0.447765,0.374671 -0.946978,0.696225 -1.476365,0.942441 -0.38704,0.180012 -1.413285,-0.06917 -1.239723,0.320802 0.35829,0.805034 1.391811,1.081233 2.098169,1.608026 0.280644,0.209301 -0.547166,-0.436898 -0.82075,-0.655346 -0.20551,-0.381315 -0.440431,-0.748184 -0.616527,-1.143942 -0.210648,-0.473419 -0.376627,-0.965922 -0.540928,-1.457354 -0.629218,-1.882048 -1.038693,-3.829058 -1.175805,-5.810224 -0.140957,-1.940986 0.11421,-0.896728 -3.657695,-2.575917 -0.201049,-0.0895 -0.658125,1.98995 -0.668018,2.093055 -0.245906,1.163924 -0.489196,2.327939 -0.696444,3.499038 -0.03482,0.06364 -0.05912,0.134292 -0.104471,0.19091 -0.385834,0.481719 -1.183163,0.701715 -1.760828,0.733698 -0.314465,0.01741 -0.629291,-0.02753 -0.943933,-0.04129 0.573992,0.433716 1.322176,0.703035 1.721974,1.301147 0.317299,0.474689 -1.036888,-0.514705 -1.455697,-0.902788 -0.552815,-0.512257 -1.021787,-1.119851 -1.418569,-1.760611 -1.914496,-3.091696 -2.469716,-6.74601 -3.326911,-10.209395 -0.890595,-4.957125 -0.671012,-3.47676 -1.358646,-8.269417 -0.145065,-1.011087 0.124775,-2.171052 -0.419367,-3.035487 -1.0946,-1.738896 -3.323532,-4.492007 -4.370707,-3.034658 -0.347737,0.483943 -0.500259,1.081771 -0.750388,1.622656 -1.215826,2.908752 -2.443673,5.82164 -4.010927,8.564871 -0.557191,0.975281 -1.164656,1.922124 -1.795341,2.851571 -0.480867,0.70866 -0.970592,1.416383 -1.536747,2.058961 -0.418704,0.475218 -0.936456,0.853009 -1.404684,1.279512 -0.393057,0.142943 -1.341387,0.04333 -1.179168,0.428826 0.318918,0.757888 1.157173,1.45198 1.979178,1.472342 0.526169,0.01304 -0.487362,-0.938537 -0.649118,-1.439394 -0.222366,-0.688528 -0.349628,-1.404564 -0.498073,-2.112716 -0.472382,-2.253488 -0.602999,-3.323921 -0.962403,-5.65413 -0.429273,-3.572121 -0.345591,-2.649313 -0.660675,-6.132816 -0.07364,-0.814087 -0.13493,-1.629261 -0.209124,-2.443298 -0.05318,-0.583428 0.187986,-1.287575 -0.172982,-1.749005 -2.521866,-3.223743 -2.118503,-3.152202 -4.016158,-2.814545 -0.188429,0.343145 -0.404255,0.672613 -0.565285,1.029435 -0.285872,0.633446 -0.517046,1.290186 -0.773121,1.936253 -0.353285,0.891332 -0.697521,1.786257 -1.054954,2.675933 -1.414664,3.52117 -2.921479,7.003029 -4.418468,10.489705 -0.51064,1.080731 -0.977516,2.183241 -1.531919,3.242186 -1.360839,2.59928 -3.096871,5.04808 -5.221845,7.078025 z" />
    <path
       style="fill:#1a1a1a;stroke:#ffffff;stroke-width:0.665001"
       id="path2"
       d="m 46.01883,51.292841 c 1.920053,-0.257074 -0.296402,0.0327 2.532772,-0.30059 3.448595,-0.406265 3.779824,-0.494938 7.574439,-0.849019 3.649413,-0.340532 5.578184,-0.445902 9.20611,-0.688012 3.468415,-0.15939 6.953848,-0.515734 10.427454,-0.220112 0.747247,0.0636 1.496381,0.152604 2.226257,0.324951 0.541984,0.127981 2.001092,0.923866 1.5699,0.571449 -0.603017,-0.492852 -1.404482,-0.673467 -2.106723,-1.0102 0.07148,0.235969 0.291896,0.473829 0.21445,0.707906 -0.26193,0.791652 -1.872816,1.739313 -2.39114,1.954287 -3.439599,1.426561 -7.234383,1.293272 -10.870311,1.346202 -3.512595,-0.08365 -7.007969,-0.443439 -10.473153,-1.010078 -0.432943,-0.0708 -1.589691,-0.56718 -1.29332,-0.243735 2.321618,2.533701 2.434878,2.324484 4.730091,2.664328 0.731007,0.147733 1.464757,0.282485 2.19302,0.443198 1.761628,0.388755 3.277219,0.759148 4.993624,1.315326 0.741415,0.240247 1.486434,0.478782 2.198939,0.794618 0.713253,0.316166 1.389425,0.711211 2.067732,1.09669 0.207319,0.117821 -0.435208,-0.195062 -0.652812,-0.292595 2.496569,1.60323 2.648384,1.737421 6.048195,3.611454 1.326653,0.731271 2.836701,1.328015 4.326938,1.6265 0.380645,0.07624 0.770284,0.09733 1.155424,0.145997 0.93231,0.05277 1.792542,-0.188632 2.66209,-0.478452 0,0 -3.060457,-2.070578 -3.060457,-2.070578 v 0 c -0.849347,0.309771 -1.501706,0.487735 -2.431081,0.437343 -0.358106,-0.04719 -0.720127,-0.07074 -1.074315,-0.141568 -0.835808,-0.167135 -1.792634,-0.487201 -2.567482,-0.817751 -0.513249,-0.21895 -0.961123,-0.620572 -1.50953,-0.723598 -0.282273,-0.05303 4.74545,2.64741 -0.709297,-0.489191 -1.042408,-0.618834 -4.853215,-3.011847 -6.656459,-3.775085 -0.688102,-0.291246 -1.410041,-0.496279 -2.124514,-0.714997 -2.473587,-0.757222 -5.007073,-1.291715 -7.498194,-1.984288 -0.582015,-0.192534 -2.033357,-1.119148 -1.746046,-0.577606 1.767104,3.330733 1.688615,1.916289 3.315229,1.934085 0.777695,0.0085 1.552588,0.09491 2.328809,0.143566 4.990336,0.312822 2.055511,0.155985 7.561644,0.401767 3.215875,0.0086 5.244047,0.122666 8.417406,-0.280921 2.025317,-0.257583 3.573907,-0.47108 5.228294,-1.615197 0.434554,-0.300522 0.903623,-0.643027 1.113761,-1.127789 0.130701,-0.301519 -0.138033,-0.642602 -0.207047,-0.963901 -1.27626,-0.784807 -2.499731,-1.662758 -3.828778,-2.354419 -0.829826,-0.431852 -2.654773,-0.504997 -3.447134,-0.518996 -3.302789,-0.05835 -6.587861,0.406972 -9.873784,0.645637 -4.624957,0.396607 -9.25308,0.821383 -13.89733,0.911653 -1.262049,0.02453 -2.524471,-0.02294 -3.786727,-0.03133 -2.916682,-0.01939 -0.893135,0.01183 -3.019203,-0.02672 z" />
    <path
       style="fill:#1a1a1a;stroke:#ffffff;stroke-width:0.665001"
       id="path3"
       d="m 46.01883,51.292841 c 1.920053,-0.257074 -0.296402,0.0327 2.532772,-0.30059 3.448595,-0.406265 3.779824,-0.494938 7.574439,-0.849019 3.649413,-0.340532 5.578184,-0.445902 9.20611,-0.688012 3.468415,-0.15939 6.953848,-0.515734 10.427454,-0.220112 0.747247,0.0636 1.496381,0.152604 2.226257,0.324951 0.541984,0.127981 2.001092,0.923866 1.5699,0.571449 -0.603017,-0.492852 -1.404482,-0.673467 -2.106723,-1.0102 0.07148,0.235969 0.291896,0.473829 0.21445,0.707906 -0.26193,0.791652 -1.872816,1.739313 -2.39114,1.954287 -3.439599,1.426561 -7.234383,1.293272 -10.870311,1.346202 -3.512595,-0.08365 -7.007969,-0.443439 -10.473153,-1.010078 -0.432943,-0.0708 -1.589691,-0.56718 -1.29332,-0.243735 2.321618,2.533701 2.434878,2.324484 4.730091,2.664328 0.731007,0.147733 1.464757,0.282485 2.19302,0.443198 1.761628,0.388755 3.277219,0.759148 4.993624,1.315326 0.741415,0.240247 1.486434,0.478782 2.198939,0.794618 0.713253,0.316166 1.389425,0.711211 2.067732,1.09669 0.207319,0.117821 -0.435208,-0.195062 -0.652812,-0.292595 2.496569,1.60323 2.648384,1.737421 6.048195,3.611454 1.326653,0.731271 2.836701,1.328015 4.326938,1.6265 0.380645,0.07624 0.770284,0.09733 1.155424,0.145997 0.93231,0.05277 1.792542,-0.188632 2.66209,-0.478452 0,0 -3.060457,-2.070578 -3.060457,-2.070578 v 0 c -0.849347,0.309771 -1.501706,0.487735 -2.431081,0.437343 -0.358106,-0.04719 -0.720127,-0.07074 -1.074315,-0.141568 -0.835808,-0.167135 -1.792634,-0.487201 -2.567482,-0.817751 -0.513249,-0.21895 -0.961123,-0.620572 -1.50953,-0.723598 -0.282273,-0.05303 4.74545,2.64741 -0.709297,-0.489191 -1.042408,-0.618834 -4.853215,-3.011847 -6.656459,-3.775085 -0.688102,-0.291246 -1.410041,-0.496279 -2.124514,-0.714997 -2.473587,-0.757222 -5.007073,-1.291715 -7.498194,-1.984288 -0.582015,-0.192534 -2.033357,-1.119148 -1.746046,-0.577606 1.767104,3.330733 1.688615,1.916289 3.315229,1.934085 0.777695,0.0085 1.552588,0.09491 2.328809,0.143566 4.990336,0.312822 2.055511,0.155985 7.561644,0.401767 3.215875,0.0086 5.244047,0.122666 8.417406,-0.280921 2.025317,-0.257583 3.573907,-0.47108 5.228294,-1.615197 0.434554,-0.300522 0.903623,-0.643027 1.113761,-1.127789 0.130701,-0.301519 -0.138033,-0.642602 -0.207047,-0.963901 -1.27626,-0.784807 -2.499731,-1.662758 -3.828778,-2.354419 -0.829826,-0.431852 -2.654773,-0.504997 -3.447134,-0.518996 -3.302789,-0.05835 -6.587861,0.406972 -9.873784,0.645637 -4.624957,0.396607 -9.25308,0.821383 -13.89733,0.911653 -1.262049,0.02453 -2.524471,-0.02294 -3.786727,-0.03133 -2.916682,-0.01939 -0.893135,0.01183 -3.019203,-0.02672 z" />
    <path
       style="fill:#1a1a1a;stroke:#ffffff;stroke-width:0.665001"
       id="path4"
       d="M 70.676856,64.531858 C 67.198763,62.994806 63.750501,61.292446 60.79673,58.859014 57.56775,56.198857 55.424352,54.393419 53.594674,50.55436 52.850933,48.993834 52.58395,47.248 52.078588,45.594822 c -0.395571,-3.78388 -0.959835,-5.201856 0.264149,-8.898241 1.404371,-4.241149 4.757243,-7.688075 8.563647,-9.88046 1.190308,-0.685584 2.517579,-1.099649 3.776366,-1.649475 1.256205,-0.155599 2.503572,-0.510764 3.768611,-0.466798 2.341203,0.08137 4.868646,0.996338 6.645741,2.548481 0.36612,0.319775 0.280511,0.941562 0.530759,1.358304 4.103389,6.833389 0.31487,-0.756967 3.534868,6.065446 0.107765,1.036444 0.839195,4.078727 -0.487153,5.071102 -0.583901,0.436877 -1.481781,0.198128 -2.187694,0.01513 -2.06946,-0.536482 -2.847092,-1.248103 -4.326583,-2.400877 -1.00207,-0.780782 -1.99907,-1.56805 -2.998608,-2.352074 -0.64892,-0.622107 -1.341213,-1.201923 -1.946764,-1.86632 -0.277162,-0.304097 -0.525119,-0.646952 -0.6882,-1.024705 -0.05084,-0.117774 0.447826,0.249171 0.330753,0.196733 -0.766117,-0.343154 -1.440477,-1.080227 -2.27987,-1.069774 -0.584663,0.0073 0.936601,0.70153 1.381474,1.080966 0.443394,0.378174 0.853967,0.793224 1.280949,1.189837 0.381169,0.367654 0.73524,0.765659 1.14351,1.102966 1.479463,1.222303 4.115181,2.311053 5.641758,2.543463 0.655061,0.09973 1.259909,-0.437515 1.831542,-0.772607 1.679059,-0.984263 2.847792,-2.256338 4.257293,-3.584575 3.194614,-3.157868 6.338801,-6.365885 9.503857,-9.553128 1.035609,-1.30921 1.124609,-1.246994 -3.768206,-1.90095 -0.616757,-0.08243 -1.071533,0.64043 -1.644041,0.884195 -2.784822,1.185736 -4.088739,1.42396 -7.087108,2.245056 0,0 1.892668,1.303768 1.892668,1.303768 v 0 c 1.340876,-0.321691 2.678318,-0.65805 4.022632,-0.965072 1.264161,-0.288716 2.542328,-0.515513 3.802293,-0.822027 0.696248,-0.169377 2.174546,0.103001 2.062831,-0.604791 -0.161321,-1.022079 -3.223813,-3.32448 -2.384186,-1.987883 -0.153864,0.263559 -0.29151,0.537277 -0.461585,0.790677 -0.517667,0.771291 -1.601245,2.149236 -2.138063,2.793913 -1.886622,2.265681 -3.92216,4.406112 -6.116733,6.376533 -1.611598,1.319244 -2.678205,2.388931 -4.570441,3.248287 -0.60157,0.273201 -1.743443,-0.08608 -1.902775,0.555119 -0.164298,0.661184 1.267481,0.825852 1.393227,1.495439 0.190876,1.016386 -3.016404,-2.74514 -2.449629,-1.903836 -0.171659,-0.165026 -2.138169,-2.081236 -2.412325,-2.248948 -1.374683,-0.840941 -2.764272,-1.690836 -4.267229,-2.272263 -0.180708,-0.06991 -0.263144,0.387665 -0.168019,0.556467 0.289193,0.51318 0.779971,0.885161 1.208299,1.289539 0.747525,0.705721 1.543648,1.358122 2.315472,2.037183 3.515543,2.742774 4.090022,3.356108 8.567661,5.863683 0.8431,0.472157 4.275159,2.609654 5.782993,1.196514 1.224983,-1.148053 0.362106,-4.348022 0.204184,-5.444135 -0.943007,-1.939626 -2.058236,-4.618405 -3.606218,-6.190178 -1.418288,-1.440082 -5.490956,-4.771375 -7.912674,-5.633401 -3.075287,-1.094667 -4.087805,-0.516032 -7.203842,-0.0075 -1.232395,0.58512 -2.530891,1.047601 -3.697182,1.755361 -3.726709,2.261539 -7.261508,5.791139 -8.635322,10.032169 -1.236467,3.817025 -0.563661,5.256313 -0.0071,9.129123 0.526325,1.681329 0.814422,3.456744 1.578978,5.043987 1.667147,3.461044 4.193767,6.083969 7.21656,8.382241 1.952699,1.484667 4.06777,2.744925 6.153219,4.036504 2.820212,1.746639 5.035394,2.837103 7.907716,4.324948 z" />
    <path
       style="fill:#1a1a1a;stroke:#ffffff;stroke-width:0.665001"
       id="path5"
       d="m 53.612547,15.553779 c 5.548312,-0.929615 11.100056,-1.832904 16.68536,-2.516659 2.492444,-0.305126 4.990938,-0.558637 7.486406,-0.837956 6.892129,-0.630516 8.41343,-0.8227 15.216468,-1.242221 2.130703,-0.131394 4.264036,-0.215982 6.396053,-0.323973 0,0 -1.137859,-0.8140284 -1.137859,-0.8140284 v 0 c -7.034699,0.6865414 -14.069724,1.3738854 -21.116906,1.9227014 -3.939646,0.299778 -10.682523,0.824767 -14.73958,1.090043 -2.430574,0.158927 -6.39531,0.387484 -9.029562,0.458027 -1.443884,0.03867 -1.739316,0.01717 -2.909658,-0.02402 z" />
    <path
       style="fill:#1a1a1a;stroke:#ffffff;stroke-width:0.665001"
       id="path6"
       d="m 58.578278,19.348538 c 0.947748,-0.106384 1.89383,-0.228842 2.843247,-0.319152 3.818263,-0.3632 6.232448,-0.50466 10.188239,-0.723192 4.388096,-0.242413 9.825244,-0.505523 14.181476,-0.604402 2.464321,-0.05594 4.929677,-0.04769 7.394517,-0.07154 5.641154,-0.01541 11.277673,0.195933 16.912123,0.438418 0,0 -1.77514,-1.29281 -1.77514,-1.29281 v 0 c -5.29606,0.123404 -10.592418,0.231312 -15.889368,0.30934 -16.54233,0.298232 2.151956,-0.02251 -15.032651,0.219442 -7.19309,0.101276 -14.392847,0.308232 -21.585008,0.04903 z" />
    <path
       style="fill:#1a1a1a;stroke:#ffffff;stroke-width:0.665001"
       id="path7"
       d="m 97.161402,20.842857 c -1.250448,0.207706 -2.52557,0.248093 -3.789519,0.33254 -1.236996,0.08082 -2.476881,0.108209 -3.716123,0.128835 -0.174964,9.26e-4 -0.349925,0.0019 -0.524888,0.0028 0,0 3.062486,2.21922 3.062486,2.21922 v 0 c 0.17296,-0.0034 0.345924,-0.0068 0.518884,-0.01018 1.218007,-0.02593 2.43163,-0.110092 3.646409,-0.201527 1.324657,-0.09199 2.653331,-0.163994 3.981159,-0.162414 z" />
    <path
       style="fill:#1a1a1a;stroke:#ffffff;stroke-width:0.665001"
       id="path8"
       d="m 99.682164,22.722964 c -1.228596,0.585655 -2.544861,0.977427 -3.839808,1.390086 -1.226556,0.415626 -2.479995,0.742223 -3.72033,1.11239 -1.288889,0.377405 -2.5474,0.849867 -3.80161,1.328185 -0.18528,0.06818 -0.370557,0.136359 -0.555837,0.204536 0,0 3.121237,2.091958 3.121237,2.091958 v 0 c 0.174516,-0.07491 0.349036,-0.149813 0.523555,-0.224716 1.248097,-0.507971 2.528726,-0.92828 3.832375,-1.270328 1.213615,-0.371187 2.416189,-0.77451 3.615659,-1.189216 1.354385,-0.422952 2.706205,-0.854947 4.067185,-1.256226 z" />
  </g>
</svg>
